<svg width="1200" height="400" viewBox="0 0 1200 400" fill="none" xmlns="http://www.w3.org/2000/svg">
<rect width="1200" height="400" fill="white"/>
<path d="M473.862 193.835C476.344 192.032 480.364 193.336 482.843 196.748C485.322 200.16 485.319 204.387 482.838 206.189C480.357 207.992 476.336 206.688 473.858 203.276C471.379 199.865 471.381 195.638 473.862 193.835ZM490.518 196.748C492.996 193.336 497.017 192.032 499.498 193.835C501.979 195.638 501.982 199.865 499.503 203.276C497.024 206.688 493.003 207.992 490.522 206.189C488.041 204.387 488.039 200.16 490.518 196.748ZM486.68 182.658C489.711 182.658 492.169 186.061 492.169 190.258C492.169 194.455 489.711 197.857 486.68 197.857C483.649 197.857 481.192 194.455 481.192 190.258C481.192 186.061 483.649 182.658 486.68 182.658Z" fill="#7C8F73"/>
<path d="M521.892 208.36C520.716 208.36 519.672 208.24 518.76 208C517.872 207.76 517.128 207.412 516.528 206.956C515.928 206.5 515.472 205.96 515.16 205.336C514.872 204.712 514.728 204.028 514.728 203.284C514.728 202.804 514.824 202.384 515.016 202.024C515.232 201.664 515.532 201.388 515.916 201.196C516.3 200.98 516.768 200.872 517.32 200.872C517.368 201.856 517.56 202.792 517.896 203.68C518.232 204.544 518.748 205.252 519.444 205.804C520.14 206.332 521.052 206.596 522.18 206.596C523.788 206.596 525.048 206.212 525.96 205.444C526.872 204.652 527.328 203.524 527.328 202.06C527.328 201.172 527.148 200.428 526.788 199.828C526.452 199.204 525.876 198.628 525.06 198.1C524.268 197.572 523.164 197.02 521.748 196.444C520.644 195.988 519.672 195.496 518.832 194.968C517.992 194.44 517.296 193.864 516.744 193.24C516.216 192.616 515.808 191.908 515.52 191.116C515.256 190.324 515.124 189.436 515.124 188.452C515.124 187.084 515.46 185.92 516.132 184.96C516.828 183.976 517.764 183.232 518.94 182.728C520.14 182.2 521.496 181.936 523.008 181.936C524.448 181.936 525.66 182.128 526.644 182.512C527.652 182.896 528.42 183.4 528.948 184.024C529.476 184.624 529.74 185.272 529.74 185.968C529.74 186.736 529.476 187.324 528.948 187.732C528.444 188.116 527.76 188.308 526.896 188.308C526.896 187.564 526.764 186.844 526.5 186.148C526.26 185.452 525.84 184.876 525.24 184.42C524.664 183.964 523.872 183.736 522.864 183.736C521.952 183.736 521.16 183.904 520.488 184.24C519.84 184.576 519.336 185.056 518.976 185.68C518.64 186.28 518.472 187 518.472 187.84C518.472 188.8 518.64 189.616 518.976 190.288C519.336 190.936 519.924 191.524 520.74 192.052C521.556 192.556 522.66 193.096 524.052 193.672C525.468 194.248 526.668 194.884 527.652 195.58C528.66 196.252 529.428 197.032 529.956 197.92C530.484 198.808 530.748 199.876 530.748 201.124C530.748 202.66 530.388 203.968 529.668 205.048C528.948 206.104 527.916 206.92 526.572 207.496C525.252 208.072 523.692 208.36 521.892 208.36ZM539.962 208.36C538.906 208.36 537.946 208.156 537.082 207.748C536.242 207.316 535.582 206.68 535.102 205.84C534.622 204.976 534.382 203.896 534.382 202.6C534.382 200.68 535.054 199.264 536.398 198.352C537.766 197.44 539.83 196.936 542.59 196.84L545.578 196.732V194.572C545.578 193.708 545.506 192.952 545.362 192.304C545.218 191.632 544.906 191.104 544.426 190.72C543.946 190.336 543.214 190.144 542.23 190.144C541.318 190.144 540.622 190.312 540.142 190.648C539.662 190.984 539.338 191.452 539.17 192.052C539.026 192.628 538.954 193.3 538.954 194.068C537.946 194.068 537.178 193.9 536.65 193.564C536.146 193.204 535.894 192.616 535.894 191.8C535.894 190.96 536.182 190.288 536.758 189.784C537.358 189.28 538.15 188.92 539.134 188.704C540.118 188.464 541.198 188.344 542.374 188.344C544.582 188.344 546.226 188.812 547.306 189.748C548.41 190.684 548.962 192.292 548.962 194.572V203.896C548.962 204.568 549.034 205.096 549.178 205.48C549.322 205.84 549.562 206.104 549.898 206.272C550.234 206.416 550.666 206.488 551.194 206.488H551.302V208H546.442L545.866 204.904H545.578C545.074 205.576 544.582 206.176 544.102 206.704C543.622 207.208 543.058 207.616 542.41 207.928C541.786 208.216 540.97 208.36 539.962 208.36ZM540.79 206.128C541.774 206.128 542.614 205.924 543.31 205.516C544.03 205.108 544.582 204.532 544.966 203.788C545.374 203.02 545.578 202.132 545.578 201.124V198.208L543.274 198.316C541.906 198.364 540.826 198.568 540.034 198.928C539.266 199.288 538.714 199.792 538.378 200.44C538.042 201.064 537.874 201.844 537.874 202.78C537.874 203.524 537.982 204.148 538.198 204.652C538.414 205.132 538.738 205.504 539.17 205.768C539.602 206.008 540.142 206.128 540.79 206.128ZM554.055 208V206.488H554.163C554.715 206.488 555.207 206.428 555.639 206.308C556.095 206.188 556.455 205.948 556.719 205.588C556.983 205.204 557.115 204.64 557.115 203.896V192.664C557.115 191.944 556.971 191.416 556.683 191.08C556.419 190.72 556.059 190.492 555.603 190.396C555.171 190.276 554.691 190.216 554.163 190.216H554.055V188.704H559.599L560.283 192.268H560.463C560.775 191.548 561.111 190.888 561.471 190.288C561.831 189.688 562.311 189.22 562.911 188.884C563.511 188.524 564.339 188.344 565.395 188.344C566.715 188.344 567.687 188.572 568.311 189.028C568.959 189.484 569.283 190.132 569.283 190.972C569.283 191.716 569.019 192.328 568.491 192.808C567.987 193.288 567.135 193.528 565.935 193.528C565.935 192.856 565.875 192.316 565.755 191.908C565.635 191.5 565.431 191.2 565.143 191.008C564.879 190.816 564.507 190.72 564.027 190.72C563.355 190.72 562.791 190.984 562.335 191.512C561.879 192.04 561.519 192.712 561.255 193.528C560.991 194.344 560.799 195.196 560.679 196.084C560.559 196.948 560.499 197.728 560.499 198.424V204.076C560.499 204.772 560.631 205.3 560.895 205.66C561.183 205.996 561.543 206.224 561.975 206.344C562.431 206.44 562.923 206.488 563.451 206.488H564.459V208H554.055ZM576.489 208.36C575.433 208.36 574.473 208.156 573.609 207.748C572.769 207.316 572.109 206.68 571.629 205.84C571.149 204.976 570.909 203.896 570.909 202.6C570.909 200.68 571.581 199.264 572.925 198.352C574.293 197.44 576.357 196.936 579.117 196.84L582.105 196.732V194.572C582.105 193.708 582.033 192.952 581.889 192.304C581.745 191.632 581.433 191.104 580.953 190.72C580.473 190.336 579.741 190.144 578.757 190.144C577.845 190.144 577.149 190.312 576.669 190.648C576.189 190.984 575.865 191.452 575.697 192.052C575.553 192.628 575.481 193.3 575.481 194.068C574.473 194.068 573.705 193.9 573.177 193.564C572.673 193.204 572.421 192.616 572.421 191.8C572.421 190.96 572.709 190.288 573.285 189.784C573.885 189.28 574.677 188.92 575.661 188.704C576.645 188.464 577.725 188.344 578.901 188.344C581.109 188.344 582.753 188.812 583.833 189.748C584.937 190.684 585.489 192.292 585.489 194.572V203.896C585.489 204.568 585.561 205.096 585.705 205.48C585.849 205.84 586.089 206.104 586.425 206.272C586.761 206.416 587.193 206.488 587.721 206.488H587.829V208H582.969L582.393 204.904H582.105C581.601 205.576 581.109 206.176 580.629 206.704C580.149 207.208 579.585 207.616 578.937 207.928C578.313 208.216 577.497 208.36 576.489 208.36ZM577.317 206.128C578.301 206.128 579.141 205.924 579.837 205.516C580.557 205.108 581.109 204.532 581.493 203.788C581.901 203.02 582.105 202.132 582.105 201.124V198.208L579.801 198.316C578.433 198.364 577.353 198.568 576.561 198.928C575.793 199.288 575.241 199.792 574.905 200.44C574.569 201.064 574.401 201.844 574.401 202.78C574.401 203.524 574.509 204.148 574.725 204.652C574.941 205.132 575.265 205.504 575.697 205.768C576.129 206.008 576.669 206.128 577.317 206.128ZM590.043 208V206.488H590.331C590.883 206.488 591.375 206.428 591.807 206.308C592.263 206.188 592.623 205.948 592.887 205.588C593.151 205.204 593.283 204.64 593.283 203.896V184.6C593.283 183.88 593.139 183.352 592.851 183.016C592.587 182.656 592.227 182.428 591.771 182.332C591.339 182.212 590.859 182.152 590.331 182.152H590.043V180.64H596.667V188.56C596.667 188.992 596.655 189.448 596.631 189.928C596.607 190.384 596.583 190.78 596.559 191.116C596.535 191.452 596.523 191.62 596.523 191.62H596.703C597.063 190.9 597.495 190.3 597.999 189.82C598.527 189.316 599.115 188.944 599.763 188.704C600.435 188.464 601.179 188.344 601.995 188.344C604.059 188.344 605.631 188.908 606.711 190.036C607.815 191.14 608.367 192.928 608.367 195.4V203.896C608.367 204.64 608.487 205.204 608.727 205.588C608.967 205.948 609.291 206.188 609.699 206.308C610.131 206.428 610.611 206.488 611.139 206.488H611.247V208H604.983V195.58C604.983 194.02 604.683 192.808 604.083 191.944C603.507 191.08 602.487 190.648 601.023 190.648C600.039 190.648 599.223 190.888 598.575 191.368C597.927 191.848 597.447 192.532 597.135 193.42C596.823 194.284 596.667 195.304 596.667 196.48V204.076C596.667 204.772 596.799 205.3 597.063 205.66C597.351 205.996 597.711 206.224 598.143 206.344C598.599 206.44 599.091 206.488 599.619 206.488H599.727V208H590.043ZM621.202 216.64V214.948H621.526C622.558 214.948 623.434 214.744 624.154 214.336C624.874 213.952 625.426 213.268 625.81 212.284C626.194 211.324 626.386 210.004 626.386 208.324V186.256C626.386 185.536 626.242 185.008 625.954 184.672C625.69 184.312 625.33 184.084 624.874 183.988C624.442 183.868 623.962 183.808 623.434 183.808H622.966V182.296H633.442V183.808H632.974C632.446 183.808 631.954 183.868 631.498 183.988C631.042 184.108 630.682 184.348 630.418 184.708C630.154 185.068 630.022 185.632 630.022 186.4V208.288C630.022 209.896 629.806 211.24 629.374 212.32C628.966 213.4 628.39 214.252 627.646 214.876C626.902 215.5 626.026 215.944 625.018 216.208C624.034 216.496 622.966 216.64 621.814 216.64H621.202ZM641.845 208.36C640.789 208.36 639.829 208.156 638.965 207.748C638.125 207.316 637.465 206.68 636.985 205.84C636.505 204.976 636.265 203.896 636.265 202.6C636.265 200.68 636.937 199.264 638.281 198.352C639.649 197.44 641.713 196.936 644.473 196.84L647.461 196.732V194.572C647.461 193.708 647.389 192.952 647.245 192.304C647.101 191.632 646.789 191.104 646.309 190.72C645.829 190.336 645.097 190.144 644.113 190.144C643.201 190.144 642.505 190.312 642.025 190.648C641.545 190.984 641.221 191.452 641.053 192.052C640.909 192.628 640.837 193.3 640.837 194.068C639.829 194.068 639.061 193.9 638.533 193.564C638.029 193.204 637.777 192.616 637.777 191.8C637.777 190.96 638.065 190.288 638.641 189.784C639.241 189.28 640.033 188.92 641.017 188.704C642.001 188.464 643.081 188.344 644.257 188.344C646.465 188.344 648.109 188.812 649.189 189.748C650.293 190.684 650.845 192.292 650.845 194.572V203.896C650.845 204.568 650.917 205.096 651.061 205.48C651.205 205.84 651.445 206.104 651.781 206.272C652.117 206.416 652.549 206.488 653.077 206.488H653.185V208H648.325L647.749 204.904H647.461C646.957 205.576 646.465 206.176 645.985 206.704C645.505 207.208 644.941 207.616 644.293 207.928C643.669 208.216 642.853 208.36 641.845 208.36ZM642.673 206.128C643.657 206.128 644.497 205.924 645.193 205.516C645.913 205.108 646.465 204.532 646.849 203.788C647.257 203.02 647.461 202.132 647.461 201.124V198.208L645.157 198.316C643.789 198.364 642.709 198.568 641.917 198.928C641.149 199.288 640.597 199.792 640.261 200.44C639.925 201.064 639.757 201.844 639.757 202.78C639.757 203.524 639.865 204.148 640.081 204.652C640.297 205.132 640.621 205.504 641.053 205.768C641.485 206.008 642.025 206.128 642.673 206.128ZM655.758 208V206.488H656.226C656.778 206.488 657.258 206.428 657.666 206.308C658.074 206.188 658.398 205.948 658.638 205.588C658.878 205.204 658.998 204.64 658.998 203.896V192.664C658.998 191.944 658.878 191.416 658.638 191.08C658.398 190.72 658.062 190.492 657.63 190.396C657.222 190.276 656.754 190.216 656.226 190.216H656.118V188.704H661.77L662.238 191.62H662.418C662.898 190.708 663.414 190.024 663.966 189.568C664.518 189.088 665.118 188.764 665.766 188.596C666.414 188.428 667.11 188.344 667.854 188.344C668.622 188.344 669.342 188.452 670.014 188.668C670.71 188.884 671.322 189.232 671.85 189.712C672.378 190.168 672.786 190.804 673.074 191.62H673.362C673.842 190.708 674.37 190.024 674.946 189.568C675.546 189.088 676.182 188.764 676.854 188.596C677.55 188.428 678.27 188.344 679.014 188.344C680.862 188.344 682.302 188.908 683.334 190.036C684.366 191.14 684.882 192.928 684.882 195.4V203.896C684.882 204.64 685.002 205.204 685.242 205.588C685.482 205.948 685.806 206.188 686.214 206.308C686.646 206.428 687.126 206.488 687.654 206.488H687.762V208H681.498V195.58C681.498 194.02 681.21 192.808 680.634 191.944C680.082 191.08 679.11 190.648 677.718 190.648C676.734 190.648 675.942 190.9 675.342 191.404C674.766 191.884 674.346 192.532 674.082 193.348C673.842 194.164 673.722 195.052 673.722 196.012V203.896C673.722 204.64 673.842 205.204 674.082 205.588C674.322 205.948 674.646 206.188 675.054 206.308C675.486 206.428 675.966 206.488 676.494 206.488H676.602V208H670.338V195.58C670.338 194.02 670.05 192.808 669.474 191.944C668.922 191.08 667.95 190.648 666.558 190.648C665.526 190.648 664.698 190.924 664.074 191.476C663.474 192.004 663.042 192.712 662.778 193.6C662.514 194.488 662.382 195.448 662.382 196.48V204.076C662.382 204.772 662.514 205.3 662.778 205.66C663.066 205.996 663.426 206.224 663.858 206.344C664.314 206.44 664.806 206.488 665.334 206.488H665.442V208H655.758ZM699.113 208.36C696.497 208.36 694.445 207.496 692.957 205.768C691.493 204.04 690.761 201.616 690.761 198.496C690.761 195.136 691.457 192.604 692.849 190.9C694.241 189.196 696.209 188.344 698.753 188.344C701.081 188.344 702.905 189.064 704.225 190.504C705.569 191.944 706.241 194.092 706.241 196.948V198.604H694.253C694.301 200.356 694.529 201.784 694.937 202.888C695.345 203.992 695.933 204.808 696.701 205.336C697.493 205.84 698.465 206.092 699.617 206.092C700.457 206.092 701.201 205.972 701.849 205.732C702.521 205.492 703.097 205.18 703.577 204.796C704.081 204.412 704.477 204.004 704.765 203.572C704.933 203.644 705.089 203.788 705.233 204.004C705.377 204.22 705.449 204.484 705.449 204.796C705.449 205.276 705.221 205.792 704.765 206.344C704.309 206.896 703.613 207.376 702.677 207.784C701.741 208.168 700.553 208.36 699.113 208.36ZM702.605 196.66C702.605 195.388 702.473 194.272 702.209 193.312C701.969 192.352 701.561 191.608 700.985 191.08C700.409 190.552 699.641 190.288 698.681 190.288C697.793 190.288 697.037 190.54 696.413 191.044C695.813 191.524 695.333 192.232 694.973 193.168C694.637 194.104 694.421 195.268 694.325 196.66H702.605ZM715.607 208.36C714.407 208.36 713.363 208.216 712.475 207.928C711.587 207.64 710.891 207.22 710.387 206.668C709.907 206.092 709.667 205.384 709.667 204.544C709.667 203.896 709.799 203.392 710.063 203.032C710.327 202.672 710.627 202.42 710.963 202.276C711.323 202.132 711.647 202.06 711.935 202.06C711.935 202.9 712.055 203.668 712.295 204.364C712.535 205.06 712.943 205.612 713.519 206.02C714.095 206.428 714.863 206.632 715.823 206.632C717.095 206.632 718.067 206.332 718.739 205.732C719.435 205.108 719.783 204.316 719.783 203.356C719.783 202.756 719.651 202.264 719.387 201.88C719.147 201.496 718.703 201.124 718.055 200.764C717.431 200.38 716.531 199.936 715.355 199.432C714.131 198.88 713.111 198.352 712.295 197.848C711.503 197.32 710.903 196.72 710.495 196.048C710.111 195.352 709.919 194.488 709.919 193.456C709.919 191.824 710.531 190.576 711.755 189.712C713.003 188.824 714.647 188.38 716.687 188.38C717.839 188.38 718.799 188.536 719.567 188.848C720.359 189.136 720.947 189.532 721.331 190.036C721.739 190.54 721.943 191.092 721.943 191.692C721.943 192.34 721.715 192.868 721.259 193.276C720.827 193.66 720.191 193.852 719.351 193.852C719.351 192.652 719.099 191.716 718.595 191.044C718.091 190.372 717.311 190.036 716.255 190.036C715.439 190.036 714.779 190.156 714.275 190.396C713.771 190.636 713.399 190.972 713.159 191.404C712.943 191.836 712.835 192.34 712.835 192.916C712.835 193.516 712.979 194.02 713.267 194.428C713.579 194.836 714.059 195.22 714.707 195.58C715.379 195.916 716.243 196.3 717.299 196.732C718.571 197.26 719.603 197.788 720.395 198.316C721.187 198.844 721.763 199.456 722.123 200.152C722.507 200.848 722.699 201.7 722.699 202.708C722.699 204.58 722.051 205.996 720.755 206.956C719.459 207.892 717.743 208.36 715.607 208.36Z" fill="black"/>
<path opacity="0.8" d="M514.8 228V227.496H515.076C515.252 227.496 515.412 227.48 515.556 227.448C515.708 227.408 515.828 227.332 515.916 227.22C516.012 227.1 516.06 226.924 516.06 226.692V220.032H514.908C514.676 220.032 514.492 220.08 514.356 220.176C514.22 220.264 514.12 220.384 514.056 220.536C513.992 220.68 513.948 220.84 513.924 221.016L513.864 221.532H513.24L513.3 219.432H520.056L520.116 221.532H519.492L519.432 221.016C519.416 220.84 519.372 220.68 519.3 220.536C519.236 220.384 519.136 220.264 519 220.176C518.864 220.08 518.676 220.032 518.436 220.032H517.272V226.632C517.272 226.88 517.316 227.068 517.404 227.196C517.492 227.316 517.612 227.396 517.764 227.436C517.916 227.476 518.08 227.496 518.256 227.496H518.532V228H514.8ZM531.375 228V227.496H531.471C531.655 227.496 531.819 227.476 531.963 227.436C532.115 227.396 532.235 227.316 532.323 227.196C532.411 227.068 532.455 226.88 532.455 226.632V220.2C532.455 219.96 532.407 219.784 532.311 219.672C532.223 219.552 532.103 219.476 531.951 219.444C531.807 219.404 531.647 219.384 531.471 219.384H531.375V218.88H533.583V221.52C533.583 221.664 533.579 221.816 533.571 221.976C533.563 222.128 533.555 222.26 533.547 222.372C533.539 222.484 533.535 222.54 533.535 222.54H533.595C533.715 222.3 533.859 222.1 534.027 221.94C534.203 221.772 534.399 221.648 534.615 221.568C534.839 221.488 535.087 221.448 535.359 221.448C536.047 221.448 536.571 221.636 536.931 222.012C537.299 222.38 537.483 222.976 537.483 223.8V226.632C537.483 226.88 537.523 227.068 537.603 227.196C537.683 227.316 537.791 227.396 537.927 227.436C538.071 227.476 538.231 227.496 538.407 227.496H538.443V228H536.355V223.86C536.355 223.34 536.255 222.936 536.055 222.648C535.863 222.36 535.523 222.216 535.035 222.216C534.707 222.216 534.435 222.296 534.219 222.456C534.003 222.616 533.843 222.844 533.739 223.14C533.635 223.428 533.583 223.768 533.583 224.16V226.692C533.583 226.924 533.627 227.1 533.715 227.22C533.811 227.332 533.931 227.408 534.075 227.448C534.227 227.48 534.391 227.496 534.567 227.496H534.603V228H531.375ZM553.021 228.12C552.149 228.12 551.465 227.832 550.969 227.256C550.481 226.68 550.237 225.872 550.237 224.832C550.237 223.712 550.469 222.868 550.933 222.3C551.397 221.732 552.053 221.448 552.901 221.448C553.677 221.448 554.285 221.688 554.725 222.168C555.173 222.648 555.397 223.364 555.397 224.316V224.868H551.401C551.417 225.452 551.493 225.928 551.629 226.296C551.765 226.664 551.961 226.936 552.217 227.112C552.481 227.28 552.805 227.364 553.189 227.364C553.469 227.364 553.717 227.324 553.933 227.244C554.157 227.164 554.349 227.06 554.509 226.932C554.677 226.804 554.809 226.668 554.905 226.524C554.961 226.548 555.013 226.596 555.061 226.668C555.109 226.74 555.133 226.828 555.133 226.932C555.133 227.092 555.057 227.264 554.905 227.448C554.753 227.632 554.521 227.792 554.209 227.928C553.897 228.056 553.501 228.12 553.021 228.12ZM554.185 224.22C554.185 223.796 554.141 223.424 554.053 223.104C553.973 222.784 553.837 222.536 553.645 222.36C553.453 222.184 553.197 222.096 552.877 222.096C552.581 222.096 552.329 222.18 552.121 222.348C551.921 222.508 551.761 222.744 551.641 223.056C551.529 223.368 551.457 223.756 551.425 224.22H554.185ZM567.195 228V227.496H567.231C567.415 227.496 567.579 227.476 567.723 227.436C567.875 227.396 567.995 227.316 568.083 227.196C568.171 227.068 568.215 226.88 568.215 226.632V222.888C568.215 222.648 568.167 222.472 568.071 222.36C567.983 222.24 567.863 222.164 567.711 222.132C567.567 222.092 567.407 222.072 567.231 222.072H567.195V221.568H569.043L569.271 222.756H569.331C569.435 222.516 569.547 222.296 569.667 222.096C569.787 221.896 569.947 221.74 570.147 221.628C570.347 221.508 570.623 221.448 570.975 221.448C571.415 221.448 571.739 221.524 571.947 221.676C572.163 221.828 572.271 222.044 572.271 222.324C572.271 222.572 572.183 222.776 572.007 222.936C571.839 223.096 571.555 223.176 571.155 223.176C571.155 222.952 571.135 222.772 571.095 222.636C571.055 222.5 570.987 222.4 570.891 222.336C570.803 222.272 570.679 222.24 570.519 222.24C570.295 222.24 570.107 222.328 569.955 222.504C569.803 222.68 569.683 222.904 569.595 223.176C569.507 223.448 569.443 223.732 569.403 224.028C569.363 224.316 569.343 224.576 569.343 224.808V226.692C569.343 226.924 569.387 227.1 569.475 227.22C569.571 227.332 569.691 227.408 569.835 227.448C569.987 227.48 570.151 227.496 570.327 227.496H570.663V228H567.195ZM585.473 228.12C585.121 228.12 584.801 228.052 584.513 227.916C584.233 227.772 584.013 227.56 583.853 227.28C583.693 226.992 583.613 226.632 583.613 226.2C583.613 225.56 583.837 225.088 584.285 224.784C584.741 224.48 585.429 224.312 586.349 224.28L587.345 224.244V223.524C587.345 223.236 587.321 222.984 587.273 222.768C587.225 222.544 587.121 222.368 586.961 222.24C586.801 222.112 586.557 222.048 586.229 222.048C585.925 222.048 585.693 222.104 585.533 222.216C585.373 222.328 585.265 222.484 585.209 222.684C585.161 222.876 585.137 223.1 585.137 223.356C584.801 223.356 584.545 223.3 584.369 223.188C584.201 223.068 584.117 222.872 584.117 222.6C584.117 222.32 584.213 222.096 584.405 221.928C584.605 221.76 584.869 221.64 585.197 221.568C585.525 221.488 585.885 221.448 586.277 221.448C587.013 221.448 587.561 221.604 587.921 221.916C588.289 222.228 588.473 222.764 588.473 223.524V226.632C588.473 226.856 588.497 227.032 588.545 227.16C588.593 227.28 588.673 227.368 588.785 227.424C588.897 227.472 589.041 227.496 589.217 227.496H589.253V228H587.633L587.441 226.968H587.345C587.177 227.192 587.013 227.392 586.853 227.568C586.693 227.736 586.505 227.872 586.289 227.976C586.081 228.072 585.809 228.12 585.473 228.12ZM585.749 227.376C586.077 227.376 586.357 227.308 586.589 227.172C586.829 227.036 587.013 226.844 587.141 226.596C587.277 226.34 587.345 226.044 587.345 225.708V224.736L586.577 224.772C586.121 224.788 585.761 224.856 585.497 224.976C585.241 225.096 585.057 225.264 584.945 225.48C584.833 225.688 584.777 225.948 584.777 226.26C584.777 226.508 584.813 226.716 584.885 226.884C584.957 227.044 585.065 227.168 585.209 227.256C585.353 227.336 585.533 227.376 585.749 227.376ZM600.79 230.88V230.376H600.886C601.07 230.376 601.234 230.356 601.378 230.316C601.53 230.276 601.65 230.192 601.738 230.064C601.826 229.944 601.87 229.76 601.87 229.512V222.888C601.87 222.648 601.822 222.472 601.726 222.36C601.638 222.24 601.518 222.164 601.366 222.132C601.222 222.092 601.062 222.072 600.886 222.072H600.73V221.568H602.83L602.95 222.648H602.998C603.182 222.28 603.418 221.988 603.706 221.772C603.994 221.556 604.37 221.448 604.834 221.448C605.626 221.448 606.23 221.716 606.646 222.252C607.07 222.78 607.282 223.62 607.282 224.772C607.282 225.932 607.07 226.78 606.646 227.316C606.23 227.852 605.626 228.12 604.834 228.12C604.37 228.12 603.99 228.024 603.694 227.832C603.406 227.632 603.174 227.376 602.998 227.064H602.95C602.966 227.216 602.974 227.38 602.974 227.556C602.982 227.724 602.986 227.884 602.986 228.036C602.994 228.188 602.998 228.316 602.998 228.42V229.572C602.998 229.804 603.042 229.976 603.13 230.088C603.226 230.208 603.346 230.284 603.49 230.316C603.642 230.356 603.806 230.376 603.982 230.376H604.018V230.88H600.79ZM604.642 227.352C604.994 227.352 605.278 227.252 605.494 227.052C605.71 226.852 605.866 226.56 605.962 226.176C606.066 225.792 606.118 225.32 606.118 224.76C606.118 224.192 606.066 223.72 605.962 223.344C605.866 222.968 605.71 222.688 605.494 222.504C605.278 222.312 604.99 222.216 604.63 222.216C604.214 222.216 603.886 222.308 603.646 222.492C603.414 222.676 603.246 222.96 603.142 223.344C603.046 223.72 602.998 224.196 602.998 224.772C602.998 225.324 603.046 225.792 603.142 226.176C603.246 226.56 603.418 226.852 603.658 227.052C603.898 227.252 604.226 227.352 604.642 227.352ZM618.967 230.316C619.375 230.316 619.727 230.256 620.023 230.136C620.319 230.016 620.571 229.848 620.779 229.632C620.987 229.424 621.163 229.176 621.307 228.888C621.451 228.6 621.571 228.288 621.667 227.952L619.447 222.708C619.375 222.54 619.303 222.412 619.231 222.324C619.159 222.228 619.075 222.164 618.979 222.132C618.883 222.092 618.755 222.072 618.595 222.072H618.559V221.568H621.439V222.072H621.403C621.163 222.072 620.983 222.12 620.863 222.216C620.743 222.304 620.683 222.448 620.683 222.648C620.683 222.712 620.691 222.78 620.707 222.852C620.723 222.924 620.747 223.004 620.779 223.092L621.655 225.228C621.711 225.364 621.767 225.512 621.823 225.672C621.887 225.832 621.947 225.992 622.003 226.152C622.059 226.312 622.107 226.464 622.147 226.608C622.187 226.752 622.215 226.872 622.231 226.968C622.287 226.736 622.359 226.496 622.447 226.248C622.543 226 622.631 225.756 622.711 225.516L623.515 223.176C623.555 223.08 623.583 222.988 623.599 222.9C623.615 222.804 623.623 222.724 623.623 222.66C623.623 222.452 623.555 222.304 623.419 222.216C623.291 222.12 623.095 222.072 622.831 222.072H622.795V221.568H625.291V222.072H625.255C625.103 222.072 624.975 222.096 624.871 222.144C624.767 222.192 624.675 222.284 624.595 222.42C624.523 222.556 624.439 222.752 624.343 223.008L622.519 228.048C622.311 228.632 622.111 229.108 621.919 229.476C621.727 229.844 621.511 230.128 621.271 230.328C621.039 230.536 620.747 230.68 620.395 230.76C620.043 230.84 619.603 230.88 619.075 230.88H618.967V230.316Z" fill="#9AAE93"/>
</svg>
